Plot: A political strategist juggling three clients questions whether or not to take the high road as the ugly side of his work begins to haunt him. 

MI:
General
Unique ID                                : 233345605388791175321723692738395512095 (0xAF8CBA97F1095C2488693B6D815C1D1F)
Complete name                            : D:Knife.Fight.2012.P.UNRATED.WEB-DL.720p.mkv
Format                                   : Matroska
Format version                           : Version 2
File size                                : 3.24 GiB
Duration                                 : 1h 38mn
Overall bit rate                         : 4 711 Kbps
Encoded date                             : UTC 2013-02-04 19:38:30
Writing application                      : mkvmerge v4.9.1 ('Ich will') ╤ü╨▒╨╛╤Ç╨║╨░ ╨╛╤é Jul 11 2011 23:53:15
Writing library                          : libebml v1.2.1 + libmatroska v1.1.1

Video
ID                                       : 1
Format                                   : AVC
Format/Info                              : Advanced Video Codec
Format profile                           : High@L3.1
Format settings, CABAC                   : No
Format settings, ReFrames                : 2 frames
Codec ID                                 : V_MPEG4/ISO/AVC
Duration                                 : 1h 38mn
Bit rate                                 : 4 041 Kbps
Width                                    : 1 280 pixels
Height                                   : 720 pixels
Display aspect ratio                     : 16:9
Frame rate mode                          : Constant
Frame rate                               : 23.976 fps
Color space                              : YUV
Chroma subsampling                       : 4:2:0
Bit depth                                : 8 bits
Scan type                                : Progressive
Bits/(Pixel*Frame)                       : 0.183
Stream size                              : 2.78 GiB (86%)
Title                                    : Knife.Fight.2012.UNRATED.720p.WEB-DL.DD5.1.H.264-NGB
Language                                 : English
Default                                  : Yes
Forced                                   : Yes
Color primaries                          : BT.709
Transfer characteristics                 : BT.709
Matrix coefficients                      : BT.709

Audio #1
ID                                       : 2
Format                                   : AC-3
Format/Info                              : Audio Coding 3
Mode extension                           : CM (complete main)
Format settings, Endianness              : Big
Codec ID                                 : A_AC3
Duration                                 : 1h 38mn
Bit rate mode                            : Constant
Bit rate                                 : 192 Kbps
Channel(s)                               : 2 channels
Channel positions                        : Front: L R
Sampling rate                            : 48.0 KHz
Bit depth                                : 16 bits
Compression mode                         : Lossy
Stream size                              : 135 MiB (4%)
Title                                    : DD 2.0 @ 192 kbps - MVO
Language                                 : Russian
Default                                  : Yes
Forced                                   : Yes

Audio #2
ID                                       : 3
Format                                   : AC-3
Format/Info                              : Audio Coding 3
Mode extension                           : CM (complete main)
Format settings, Endianness              : Big
Codec ID                                 : A_AC3
Duration                                 : 1h 38mn
Bit rate mode                            : Constant
Bit rate                                 : 384 Kbps
Channel(s)                               : 6 channels
Channel positions                        : Front: L C R, Side: L R, LFE
Sampling rate                            : 48.0 KHz
Bit depth                                : 16 bits
Compression mode                         : Lossy
Stream size                              : 271 MiB (8%)
Title                                    : DD 5.1 @ 384 kbps
Language                                 : English
Default                                  : No
Forced                                   : No

Text
ID                                       : 4
Format                                   : UTF-8
Codec ID                                 : S_TEXT/UTF8
Codec ID/Info                            : UTF-8 Plain Text
Language                                 : English
Default                                  : No
Forced                                   : No